<svg xmlns="http://www.w3.org/2000/svg" xmlns:xlink="http://www.w3.org/1999/xlink" width="500" zoomAndPan="magnify" viewBox="0 0 375 374.999991" height="500" preserveAspectRatio="xMidYMid meet" version="1.0"><defs><clipPath id="46187eff3b"><path d="M 127.089844 128.953125 L 247.839844 128.953125 L 247.839844 245.953125 L 127.089844 245.953125 Z M 127.089844 128.953125 " clip-rule="nonzero"/></clipPath><clipPath id="03de10494f"><path d="M 70.328125 9.078125 L 161.078125 9.078125 L 161.078125 149.328125 L 70.328125 149.328125 Z M 70.328125 9.078125 " clip-rule="nonzero"/></clipPath><clipPath id="4aacdeee77"><path d="M 17.078125 70.011719 L 137.078125 70.011719 L 137.078125 167.511719 L 17.078125 167.511719 Z M 17.078125 70.011719 " clip-rule="nonzero"/></clipPath><clipPath id="3d03bdfb19"><path d="M 141.992188 6 L 232.742188 6 L 232.742188 144.613281 L 141.992188 144.613281 Z M 141.992188 6 " clip-rule="nonzero"/></clipPath><clipPath id="dc26d071f0"><path d="M 204.867188 4.363281 L 295.617188 4.363281 L 295.617188 144.613281 L 204.867188 144.613281 Z M 204.867188 4.363281 " clip-rule="nonzero"/></clipPath><clipPath id="53486db648"><path d="M 6 167.503906 L 125.113281 167.503906 L 125.113281 208.753906 L 6 208.753906 Z M 6 167.503906 " clip-rule="nonzero"/></clipPath><clipPath id="efb14f5d48"><path d="M 249.417969 167.503906 L 369 167.503906 L 369 208.753906 L 249.417969 208.753906 Z M 249.417969 167.503906 " clip-rule="nonzero"/></clipPath><clipPath id="af2520e517"><path d="M 233.007812 70.011719 L 353.007812 70.011719 L 353.007812 167.511719 L 233.007812 167.511719 Z M 233.007812 70.011719 " clip-rule="nonzero"/></clipPath><clipPath id="b308dead97"><path d="M 0 201.71875 L 136.828125 201.71875 L 136.828125 299.96875 L 0 299.96875 Z M 0 201.71875 " clip-rule="nonzero"/></clipPath><clipPath id="ff3c98a8d0"><path d="M 80.558594 227.667969 L 167.558594 227.667969 L 167.558594 375 L 80.558594 375 Z M 80.558594 227.667969 " clip-rule="nonzero"/></clipPath><clipPath id="9f8decd080"><path d="M 141.992188 230.613281 L 232.742188 230.613281 L 232.742188 369 L 141.992188 369 Z M 141.992188 230.613281 " clip-rule="nonzero"/></clipPath><clipPath id="9fbd39a027"><path d="M 204.867188 223.4375 L 295.617188 223.4375 L 295.617188 363.6875 L 204.867188 363.6875 Z M 204.867188 223.4375 " clip-rule="nonzero"/></clipPath><clipPath id="eff46f9f78"><path d="M 238.917969 201.71875 L 375 201.71875 L 375 299.21875 L 238.917969 299.21875 Z M 238.917969 201.71875 " clip-rule="nonzero"/></clipPath><clipPath id="6afb16c97f"><path d="M 30 31 L 196 31 L 196 172 L 30 172 Z M 30 31 " clip-rule="nonzero"/></clipPath><clipPath id="23667125d8"><path d="M 104.382812 5.863281 L 195.601562 97.078125 L 121.355469 171.324219 L 30.136719 80.109375 Z M 104.382812 5.863281 " clip-rule="nonzero"/></clipPath><clipPath id="ac5f5965fd"><path d="M 172.8125 -105 L 601.320312 323.507812 L 172.8125 752.015625 L -255.695312 323.507812 Z M 172.8125 -105 " clip-rule="nonzero"/></clipPath><clipPath id="ce1216c37c"><path d="M 89 6 L 218 6 L 218 145 L 89 145 Z M 89 6 " clip-rule="nonzero"/></clipPath><clipPath id="5b78aa03cd"><path d="M 171.324219 -2.839844 L 217.953125 110.980469 L 136.058594 144.53125 L 89.433594 30.710938 Z M 171.324219 -2.839844 " clip-rule="nonzero"/></clipPath><clipPath id="5116d1405a"><path d="M 290.136719 -90.34375 L 519.867188 470.421875 L -40.898438 700.152344 L -270.628906 139.386719 Z M 290.136719 -90.34375 " clip-rule="nonzero"/></clipPath><clipPath id="470ba4dce5"><path d="M 167 44 L 271 44 L 271 105 L 167 105 Z M 167 44 " clip-rule="nonzero"/></clipPath><clipPath id="3337d6d9a7"><path d="M 167.917969 70.957031 L 264.886719 44.550781 L 273.953125 77.835938 L 176.984375 104.246094 Z M 167.917969 70.957031 " clip-rule="nonzero"/></clipPath><clipPath id="e25556c06c"><path d="M -244.203125 -40.066406 L 208.800781 -163.441406 L 332.171875 289.558594 L -120.828125 412.933594 Z M -244.203125 -40.066406 " clip-rule="nonzero"/></clipPath></defs><g clip-path="url(#46187eff3b)"><path fill="#ffbd59" d="M 244.929688 184.984375 C 244.929688 217.808594 222.175781 243.898438 189.351562 243.898438 C 156.53125 243.898438 128.957031 219.847656 128.957031 187.023438 C 128.957031 154.199219 153.863281 130.148438 186.6875 130.148438 C 222.136719 130.148438 244.929688 152.160156 244.929688 184.984375 Z M 191.855469 68.179688 C 190.058594 65.398438 182.554688 65.121094 180.515625 68.269531 C 178.421875 71.511719 180.3125 116.164062 186.1875 116.160156 C 192.609375 116.160156 193.402344 70.574219 191.855469 68.179688 Z M 131.773438 81.644531 C 128.828125 80.136719 122.191406 83.648438 122.003906 87.394531 C 121.808594 91.25 145.773438 128.972656 150.859375 126.035156 C 156.417969 122.820312 134.316406 82.945312 131.773438 81.644531 Z M 86.476562 123.347656 C 83.171875 123.515625 79.179688 129.875 80.890625 133.214844 C 82.648438 136.652344 122.261719 157.335938 125.199219 152.246094 C 128.410156 146.6875 89.328125 123.207031 86.476562 123.347656 Z M 68.101562 182.113281 C 65.320312 183.910156 65.042969 191.414062 68.195312 193.449219 C 71.433594 195.546875 116.085938 193.652344 116.085938 187.777344 C 116.082031 181.359375 70.496094 180.5625 68.101562 182.113281 Z M 81.566406 242.191406 C 80.058594 245.136719 83.570312 251.773438 87.316406 251.964844 C 91.171875 252.160156 128.894531 228.195312 125.957031 223.109375 C 122.746094 217.546875 82.867188 239.652344 81.566406 242.191406 Z M 123.269531 287.488281 C 123.4375 290.792969 129.796875 294.785156 133.136719 293.078125 C 136.574219 291.320312 157.257812 251.703125 152.171875 248.769531 C 146.609375 245.558594 123.128906 284.640625 123.269531 287.488281 Z M 182.035156 305.867188 C 183.832031 308.644531 191.335938 308.921875 193.371094 305.773438 C 195.46875 302.53125 193.578125 257.882812 187.703125 257.882812 C 181.28125 257.882812 180.484375 303.46875 182.035156 305.867188 Z M 242.113281 292.398438 C 245.058594 293.90625 251.695312 290.394531 251.886719 286.648438 C 252.082031 282.792969 228.117188 245.074219 223.03125 248.011719 C 217.46875 251.222656 239.574219 291.097656 242.113281 292.398438 Z M 287.410156 250.695312 C 290.714844 250.53125 294.707031 244.171875 293 240.832031 C 291.242188 237.394531 251.625 216.707031 248.691406 221.796875 C 245.480469 227.359375 284.5625 250.839844 287.410156 250.695312 Z M 305.789062 191.933594 C 308.566406 190.136719 308.847656 182.632812 305.695312 180.59375 C 302.453125 178.496094 257.804688 180.390625 257.804688 186.265625 C 257.808594 192.6875 303.390625 193.480469 305.789062 191.933594 Z M 292.320312 131.851562 C 293.828125 128.90625 290.320312 122.269531 286.574219 122.078125 C 282.714844 121.882812 244.996094 145.847656 247.933594 150.9375 C 251.144531 156.496094 291.019531 134.390625 292.320312 131.851562 Z M 250.617188 86.554688 C 250.453125 83.25 244.09375 79.257812 240.753906 80.96875 C 237.316406 82.726562 216.632812 122.339844 221.71875 125.277344 C 227.28125 128.484375 250.761719 89.40625 250.617188 86.554688 Z M 250.617188 86.554688 " fill-opacity="1" fill-rule="nonzero"/></g><g clip-path="url(#03de10494f)"><path fill="#ff914d" d="M 365.96875 266.210938 C 365.96875 342.019531 313.417969 402.269531 237.613281 402.269531 C 161.804688 402.269531 98.128906 346.726562 98.128906 270.917969 C 98.128906 195.109375 155.648438 139.5625 231.453125 139.5625 C 313.328125 139.5625 365.96875 190.402344 365.96875 266.210938 Z M 243.386719 -3.554688 C 239.238281 -9.972656 221.910156 -10.613281 217.203125 -3.339844 C 212.363281 4.144531 216.734375 107.265625 230.300781 107.261719 C 245.132812 107.261719 246.964844 1.980469 243.386719 -3.554688 Z M 104.632812 27.546875 C 97.832031 24.0625 82.503906 32.171875 82.0625 40.824219 C 81.613281 49.730469 136.960938 136.847656 148.707031 130.0625 C 161.550781 122.644531 110.5 30.550781 104.632812 27.546875 Z M 0.0195312 123.863281 C -7.613281 124.246094 -16.832031 138.933594 -12.886719 146.644531 C -8.828125 154.582031 82.664062 202.355469 89.445312 190.605469 C 96.859375 177.757812 6.601562 123.53125 0.0195312 123.863281 Z M -42.421875 259.578125 C -48.839844 263.726562 -49.484375 281.054688 -42.210938 285.761719 C -34.722656 290.605469 68.398438 286.234375 68.394531 272.664062 C 68.394531 257.835938 -36.886719 256 -42.421875 259.578125 Z M -11.320312 398.335938 C -14.804688 405.136719 -6.695312 420.464844 1.957031 420.902344 C 10.863281 421.355469 97.980469 366.007812 91.195312 354.257812 C 83.777344 341.417969 -8.316406 392.46875 -11.320312 398.335938 Z M 84.992188 502.949219 C 85.378906 510.582031 100.066406 519.800781 107.777344 515.855469 C 115.714844 511.792969 163.488281 420.300781 151.738281 413.519531 C 138.890625 406.109375 84.664062 496.367188 84.992188 502.949219 Z M 220.710938 545.390625 C 224.859375 551.808594 242.1875 552.449219 246.894531 545.175781 C 251.738281 537.691406 247.367188 434.570312 233.796875 434.570312 C 218.96875 434.574219 217.132812 539.855469 220.710938 545.390625 Z M 359.464844 514.285156 C 366.269531 517.769531 381.597656 509.660156 382.035156 501.007812 C 382.488281 492.105469 327.140625 404.988281 315.390625 411.773438 C 302.550781 419.191406 353.601562 511.28125 359.464844 514.285156 Z M 464.082031 417.972656 C 471.714844 417.589844 480.933594 402.902344 476.988281 395.191406 C 472.925781 387.253906 381.433594 339.480469 374.652344 351.230469 C 367.238281 364.074219 457.5 418.304688 464.082031 417.972656 Z M 506.523438 282.257812 C 512.941406 278.105469 513.582031 260.777344 506.308594 256.074219 C 498.824219 251.230469 395.703125 255.601562 395.703125 269.167969 C 395.707031 284 500.988281 285.832031 506.523438 282.257812 Z M 475.417969 143.5 C 478.902344 136.699219 470.792969 121.371094 462.140625 120.929688 C 453.238281 120.480469 366.117188 175.828125 372.902344 187.574219 C 380.320312 200.417969 472.414062 149.367188 475.417969 143.5 Z M 379.105469 38.886719 C 378.722656 31.253906 364.035156 22.035156 356.324219 25.980469 C 348.386719 30.042969 300.613281 121.53125 312.363281 128.316406 C 325.207031 135.726562 379.4375 45.46875 379.105469 38.886719 Z M 379.105469 38.886719 " fill-opacity="1" fill-rule="nonzero"/></g><g clip-path="url(#4aacdeee77)"><path fill="#ff914d" d="M 404.625 229 C 404.625 304.804688 352.074219 365.058594 276.269531 365.058594 C 200.460938 365.058594 136.785156 309.511719 136.785156 233.707031 C 136.785156 157.898438 194.304688 102.351562 270.109375 102.351562 C 351.984375 102.351562 404.625 153.191406 404.625 229 Z M 282.042969 -40.765625 C 277.894531 -47.183594 260.566406 -47.828125 255.859375 -40.554688 C 251.019531 -33.070312 255.390625 70.054688 268.957031 70.050781 C 283.789062 70.046875 285.621094 -35.234375 282.042969 -40.765625 Z M 143.289062 -9.664062 C 136.488281 -13.148438 121.160156 -5.039062 120.71875 3.613281 C 120.269531 12.519531 175.613281 99.636719 187.363281 92.851562 C 200.207031 85.433594 149.15625 -6.660156 143.289062 -9.664062 Z M 38.675781 86.648438 C 31.042969 87.035156 21.824219 101.71875 25.769531 109.433594 C 29.828125 117.371094 121.320312 165.144531 128.101562 153.390625 C 135.515625 140.546875 45.257812 86.320312 38.675781 86.648438 Z M -3.765625 222.367188 C -10.183594 226.515625 -10.828125 243.84375 -3.554688 248.550781 C 3.933594 253.394531 107.054688 249.019531 107.050781 235.453125 C 107.050781 220.625 1.765625 218.789062 -3.765625 222.367188 Z M 27.335938 361.121094 C 23.851562 367.925781 31.960938 383.253906 40.613281 383.691406 C 49.519531 384.144531 136.636719 328.796875 129.851562 317.046875 C 122.433594 304.203125 30.339844 355.257812 27.335938 361.121094 Z M 123.648438 465.734375 C 124.035156 473.367188 138.722656 482.589844 146.433594 478.640625 C 154.371094 474.582031 202.144531 383.089844 190.394531 376.308594 C 177.546875 368.894531 123.320312 459.15625 123.648438 465.734375 Z M 259.367188 508.179688 C 263.515625 514.597656 280.84375 515.238281 285.550781 507.964844 C 290.394531 500.480469 286.019531 397.359375 272.453125 397.359375 C 257.625 397.363281 255.789062 502.644531 259.367188 508.179688 Z M 398.121094 477.074219 C 404.925781 480.558594 420.253906 472.449219 420.691406 463.796875 C 421.144531 454.894531 365.796875 367.773438 354.046875 374.558594 C 341.203125 381.976562 392.257812 474.070312 398.121094 477.074219 Z M 502.738281 380.761719 C 510.371094 380.375 519.589844 365.691406 515.644531 357.976562 C 511.582031 350.039062 420.089844 302.265625 413.308594 314.019531 C 405.894531 326.863281 496.15625 381.09375 502.738281 380.761719 Z M 545.179688 245.042969 C 551.597656 240.894531 552.238281 223.566406 544.964844 218.859375 C 537.480469 214.015625 434.359375 218.390625 434.359375 231.957031 C 434.363281 246.789062 539.644531 248.621094 545.179688 245.042969 Z M 514.074219 106.289062 C 517.558594 99.488281 509.449219 84.160156 500.796875 83.71875 C 491.894531 83.269531 404.773438 138.613281 411.558594 150.363281 C 418.976562 163.207031 511.070312 112.15625 514.074219 106.289062 Z M 417.761719 1.675781 C 417.375 -5.957031 402.691406 -15.179688 394.980469 -11.230469 C 387.039062 -7.171875 339.265625 84.320312 351.019531 91.101562 C 363.863281 98.515625 418.09375 8.257812 417.761719 1.675781 Z M 417.761719 1.675781 " fill-opacity="1" fill-rule="nonzero"/></g><g clip-path="url(#3d03bdfb19)"><path fill="#ff914d" d="M 321.902344 281.171875 C 321.902344 356.976562 269.351562 417.230469 193.542969 417.230469 C 117.738281 417.230469 54.0625 361.683594 54.0625 285.878906 C 54.0625 210.070312 111.578125 154.523438 187.386719 154.523438 C 269.257812 154.523438 321.902344 205.363281 321.902344 281.171875 Z M 199.320312 11.40625 C 195.171875 4.984375 177.84375 4.34375 173.136719 11.617188 C 168.292969 19.101562 172.667969 122.226562 186.234375 122.222656 C 201.0625 122.21875 202.898438 16.9375 199.320312 11.40625 Z M 60.566406 42.507812 C 53.761719 39.023438 38.433594 47.132812 37.996094 55.785156 C 37.542969 64.691406 92.890625 151.808594 104.640625 145.023438 C 117.484375 137.605469 66.429688 45.511719 60.566406 42.507812 Z M -44.050781 138.820312 C -51.679688 139.207031 -60.902344 153.890625 -56.957031 161.605469 C -52.894531 169.542969 38.597656 217.316406 45.378906 205.5625 C 52.792969 192.71875 -37.46875 138.492188 -44.050781 138.820312 Z M -86.492188 274.539062 C -92.910156 278.6875 -93.550781 296.015625 -86.277344 300.722656 C -78.792969 305.566406 24.328125 301.191406 24.328125 287.625 C 24.324219 272.796875 -80.957031 270.960938 -86.492188 274.539062 Z M -55.386719 413.292969 C -58.871094 420.097656 -50.761719 435.421875 -42.109375 435.863281 C -33.207031 436.316406 53.914062 380.96875 47.128906 369.21875 C 39.710938 356.375 -52.382812 407.425781 -55.386719 413.292969 Z M 40.925781 517.90625 C 41.3125 525.539062 55.996094 534.761719 63.707031 530.8125 C 71.648438 526.753906 119.421875 435.261719 107.667969 428.480469 C 94.824219 421.066406 40.59375 511.324219 40.925781 517.90625 Z M 176.644531 560.347656 C 180.792969 566.769531 198.121094 567.410156 202.828125 560.136719 C 207.667969 552.652344 203.296875 449.53125 189.730469 449.53125 C 174.898438 449.535156 173.066406 554.816406 176.644531 560.347656 Z M 315.398438 529.246094 C 322.199219 532.730469 337.527344 524.621094 337.96875 515.96875 C 338.417969 507.0625 283.074219 419.945312 271.324219 426.730469 C 258.480469 434.148438 309.535156 526.242188 315.398438 529.246094 Z M 420.011719 432.933594 C 427.644531 432.546875 436.867188 417.863281 432.917969 410.148438 C 428.859375 402.210938 337.367188 354.4375 330.585938 366.191406 C 323.171875 379.035156 413.429688 433.261719 420.011719 432.933594 Z M 462.453125 297.214844 C 468.871094 293.066406 469.515625 275.738281 462.242188 271.03125 C 454.753906 266.1875 351.632812 270.5625 351.636719 284.128906 C 351.636719 298.957031 456.921875 300.792969 462.453125 297.214844 Z M 431.351562 158.460938 C 434.835938 151.660156 426.726562 136.332031 418.074219 135.890625 C 409.167969 135.4375 322.050781 190.785156 328.835938 202.535156 C 336.253906 215.378906 428.347656 164.328125 431.351562 158.460938 Z M 335.039062 53.847656 C 334.652344 46.214844 319.964844 36.992188 312.253906 40.941406 C 304.316406 45 256.542969 136.492188 268.292969 143.273438 C 281.140625 150.6875 335.367188 60.429688 335.039062 53.847656 Z M 335.039062 53.847656 " fill-opacity="1" fill-rule="nonzero"/></g><g clip-path="url(#dc26d071f0)"><path fill="#ff914d" d="M 273.582031 267.171875 C 273.582031 342.976562 221.03125 403.230469 145.222656 403.230469 C 69.417969 403.230469 5.742188 347.683594 5.742188 271.875 C 5.742188 196.070312 63.261719 140.523438 139.066406 140.523438 C 220.941406 140.523438 273.582031 191.363281 273.582031 267.171875 Z M 151 -2.59375 C 146.851562 -9.015625 129.523438 -9.65625 124.816406 -2.382812 C 119.972656 5.101562 124.347656 108.222656 137.914062 108.222656 C 152.746094 108.21875 154.578125 2.9375 151 -2.59375 Z M 12.246094 28.507812 C 5.445312 25.023438 -9.882812 33.132812 -10.324219 41.785156 C -10.773438 50.691406 44.570312 137.808594 56.320312 131.023438 C 69.164062 123.605469 18.113281 31.511719 12.246094 28.507812 Z M -92.367188 124.820312 C -100 125.207031 -109.222656 139.890625 -105.273438 147.605469 C -101.214844 155.542969 -9.722656 203.316406 -2.941406 191.5625 C 4.472656 178.71875 -85.785156 124.492188 -92.367188 124.820312 Z M -134.808594 260.539062 C -141.226562 264.6875 -141.871094 282.015625 -134.597656 286.722656 C -127.109375 291.566406 -23.988281 287.191406 -23.992188 273.625 C -23.996094 258.796875 -129.277344 256.960938 -134.808594 260.539062 Z M -103.707031 399.292969 C -107.191406 406.09375 -99.082031 421.421875 -90.429688 421.863281 C -81.523438 422.316406 5.59375 366.96875 -1.191406 355.21875 C -8.609375 342.375 -100.703125 393.425781 -103.707031 399.292969 Z M -7.394531 503.90625 C -7.007812 511.539062 7.675781 520.761719 15.390625 516.8125 C 23.328125 512.753906 71.101562 421.261719 59.347656 414.480469 C 46.503906 407.066406 -7.722656 497.324219 -7.394531 503.90625 Z M 128.324219 546.347656 C 132.472656 552.769531 149.800781 553.410156 154.507812 546.136719 C 159.351562 538.652344 154.976562 435.53125 141.410156 435.53125 C 126.582031 435.535156 124.746094 540.816406 128.324219 546.347656 Z M 267.078125 515.246094 C 273.882812 518.730469 289.210938 510.621094 289.648438 501.96875 C 290.101562 493.0625 234.753906 405.945312 223.003906 412.730469 C 210.160156 420.148438 261.214844 512.242188 267.078125 515.246094 Z M 371.691406 418.933594 C 379.324219 418.546875 388.546875 403.863281 384.597656 396.148438 C 380.539062 388.210938 289.046875 340.4375 282.265625 352.191406 C 274.851562 365.035156 365.113281 419.261719 371.691406 418.933594 Z M 414.136719 283.214844 C 420.554688 279.066406 421.195312 261.738281 413.921875 257.03125 C 406.433594 252.1875 303.316406 256.5625 303.316406 270.128906 C 303.320312 284.957031 408.601562 286.792969 414.136719 283.214844 Z M 383.03125 144.460938 C 386.515625 137.65625 378.40625 122.332031 369.753906 121.890625 C 360.851562 121.4375 273.730469 176.785156 280.515625 188.535156 C 287.933594 201.378906 380.027344 150.328125 383.03125 144.460938 Z M 286.71875 39.847656 C 286.332031 32.214844 271.648438 22.992188 263.933594 26.941406 C 255.996094 31 208.222656 122.492188 219.976562 129.273438 C 232.820312 136.6875 287.050781 46.429688 286.71875 39.847656 Z M 286.71875 39.847656 " fill-opacity="1" fill-rule="nonzero"/></g><g clip-path="url(#53486db648)"><path fill="#ffbd59" d="M 419.796875 181.257812 C 419.796875 257.066406 367.246094 317.316406 291.4375 317.316406 C 215.632812 317.316406 151.957031 261.773438 151.957031 185.964844 C 151.957031 110.15625 209.476562 54.609375 285.28125 54.609375 C 367.15625 54.609375 419.796875 105.449219 419.796875 181.257812 Z M 297.214844 -88.507812 C 293.066406 -94.925781 275.738281 -95.570312 271.03125 -88.292969 C 266.1875 -80.808594 270.5625 22.3125 284.128906 22.308594 C 298.957031 22.308594 300.792969 -82.972656 297.214844 -88.507812 Z M 158.460938 -57.40625 C 151.660156 -60.890625 136.332031 -52.78125 135.890625 -44.128906 C 135.4375 -35.222656 190.785156 51.894531 202.535156 45.109375 C 215.378906 37.691406 164.328125 -54.402344 158.460938 -57.40625 Z M 53.847656 38.910156 C 46.214844 39.292969 36.992188 53.980469 40.941406 61.691406 C 45 69.628906 136.492188 117.402344 143.273438 105.652344 C 150.6875 92.804688 60.429688 38.578125 53.847656 38.910156 Z M 11.40625 174.625 C 4.984375 178.773438 4.34375 196.101562 11.617188 200.808594 C 19.105469 205.652344 122.226562 201.28125 122.222656 187.710938 C 122.21875 172.882812 16.9375 171.046875 11.40625 174.625 Z M 42.507812 313.382812 C 39.023438 320.183594 47.132812 335.511719 55.785156 335.949219 C 64.691406 336.402344 151.808594 281.054688 145.023438 269.304688 C 137.605469 256.464844 45.511719 307.515625 42.507812 313.382812 Z M 138.820312 417.996094 C 139.207031 425.628906 153.890625 434.847656 161.605469 430.902344 C 169.542969 426.839844 217.316406 335.347656 205.5625 328.566406 C 192.71875 321.15625 138.492188 411.414062 138.820312 417.996094 Z M 274.539062 460.4375 C 278.6875 466.855469 296.015625 467.496094 300.722656 460.222656 C 305.566406 452.738281 301.191406 349.617188 287.625 349.617188 C 272.796875 349.621094 270.960938 454.902344 274.539062 460.4375 Z M 413.292969 429.332031 C 420.097656 432.816406 435.421875 424.707031 435.863281 416.054688 C 436.316406 407.152344 380.96875 320.03125 369.21875 326.816406 C 356.375 334.234375 407.429688 426.328125 413.292969 429.332031 Z M 517.90625 333.019531 C 525.539062 332.636719 534.761719 317.949219 530.8125 310.238281 C 526.753906 302.300781 435.261719 254.527344 428.480469 266.277344 C 421.066406 279.121094 511.324219 333.351562 517.90625 333.019531 Z M 560.347656 197.304688 C 566.769531 193.152344 567.410156 175.824219 560.136719 171.121094 C 552.648438 166.277344 449.53125 170.648438 449.53125 184.214844 C 449.535156 199.046875 554.816406 200.878906 560.347656 197.304688 Z M 529.246094 58.546875 C 532.730469 51.746094 524.621094 36.417969 515.96875 35.976562 C 507.0625 35.527344 419.945312 90.875 426.730469 102.621094 C 434.148438 115.464844 526.242188 64.414062 529.246094 58.546875 Z M 432.933594 -46.066406 C 432.546875 -53.699219 417.863281 -62.917969 410.148438 -58.972656 C 402.210938 -54.914062 354.4375 36.578125 366.191406 43.363281 C 379.035156 50.773438 433.261719 -39.484375 432.933594 -46.066406 Z M 432.933594 -46.066406 " fill-opacity="1" fill-rule="nonzero"/></g><g clip-path="url(#efb14f5d48)"><path fill="#ffbd59" d="M 222.675781 185.796875 C 222.675781 261.601562 170.125 321.855469 94.320312 321.855469 C 18.511719 321.855469 -45.164062 266.308594 -45.164062 190.503906 C -45.164062 114.695312 12.355469 59.148438 88.160156 59.148438 C 170.035156 59.148438 222.675781 109.988281 222.675781 185.796875 Z M 100.09375 -83.96875 C 95.945312 -90.386719 78.617188 -91.03125 73.910156 -83.757812 C 69.070312 -76.269531 73.441406 26.851562 87.007812 26.847656 C 101.839844 26.847656 103.671875 -78.4375 100.09375 -83.96875 Z M -38.660156 -52.867188 C -45.460938 -56.351562 -60.789062 -48.242188 -61.230469 -39.589844 C -61.679688 -30.683594 -6.335938 56.433594 5.414062 49.648438 C 18.257812 42.230469 -32.792969 -49.863281 -38.660156 -52.867188 Z M -143.273438 43.445312 C -150.90625 43.832031 -160.128906 58.519531 -156.179688 66.230469 C -152.121094 74.167969 -60.628906 121.941406 -53.847656 110.191406 C -46.433594 97.34375 -136.691406 43.117188 -143.273438 43.445312 Z M -185.714844 179.164062 C -192.132812 183.3125 -192.777344 200.640625 -185.503906 205.347656 C -178.015625 210.191406 -74.894531 205.816406 -74.898438 192.25 C -74.898438 177.421875 -180.183594 175.585938 -185.714844 179.164062 Z M -154.613281 317.917969 C -158.097656 324.722656 -149.988281 340.050781 -141.335938 340.488281 C -132.429688 340.941406 -45.3125 285.59375 -52.097656 273.84375 C -59.515625 261 -151.609375 312.054688 -154.613281 317.917969 Z M -58.300781 422.535156 C -57.914062 430.167969 -43.226562 439.386719 -35.515625 435.441406 C -27.578125 431.378906 20.195312 339.886719 8.445312 333.105469 C -4.402344 325.691406 -58.628906 415.953125 -58.300781 422.535156 Z M 77.417969 464.976562 C 81.566406 471.394531 98.894531 472.035156 103.601562 464.761719 C 108.445312 457.277344 104.070312 354.15625 90.503906 354.15625 C 75.675781 354.160156 73.839844 459.441406 77.417969 464.976562 Z M 216.171875 433.871094 C 222.976562 437.355469 238.304688 429.246094 238.742188 420.59375 C 239.195312 411.691406 183.847656 324.570312 172.097656 331.355469 C 159.253906 338.773438 210.308594 430.867188 216.171875 433.871094 Z M 320.789062 337.558594 C 328.421875 337.175781 337.640625 322.488281 333.695312 314.777344 C 329.632812 306.835938 238.140625 259.0625 231.359375 270.816406 C 223.945312 283.660156 314.207031 337.890625 320.789062 337.558594 Z M 363.230469 201.839844 C 369.648438 197.691406 370.289062 180.363281 363.015625 175.65625 C 355.53125 170.816406 252.410156 175.1875 252.410156 188.753906 C 252.414062 203.585938 357.695312 205.417969 363.230469 201.839844 Z M 332.125 63.085938 C 335.609375 56.285156 327.5 40.957031 318.847656 40.515625 C 309.945312 40.066406 222.824219 95.410156 229.609375 107.160156 C 237.027344 120.003906 329.121094 68.953125 332.125 63.085938 Z M 235.8125 -41.527344 C 235.425781 -49.160156 220.742188 -58.378906 213.03125 -54.433594 C 205.089844 -50.375 157.316406 41.117188 169.070312 47.898438 C 181.914062 55.3125 236.144531 -34.945312 235.8125 -41.527344 Z M 235.8125 -41.527344 " fill-opacity="1" fill-rule="nonzero"/></g><g clip-path="url(#af2520e517)"><path fill="#ffbd59" d="M 238.183594 231.269531 C 238.183594 307.074219 185.632812 367.328125 109.824219 367.328125 C 34.015625 367.328125 -29.660156 311.78125 -29.660156 235.976562 C -29.660156 160.167969 27.859375 104.621094 103.667969 104.621094 C 185.539062 104.621094 238.183594 155.460938 238.183594 231.269531 Z M 115.601562 -38.496094 C 111.453125 -44.917969 94.121094 -45.558594 89.417969 -38.285156 C 84.574219 -30.800781 88.945312 72.324219 102.511719 72.320312 C 117.34375 72.316406 119.179688 -32.964844 115.601562 -38.496094 Z M -23.15625 -7.394531 C -29.957031 -10.878906 -45.285156 -2.769531 -45.722656 5.882812 C -46.175781 14.789062 9.171875 101.90625 20.921875 95.121094 C 33.761719 87.703125 -17.289062 -4.390625 -23.15625 -7.394531 Z M -127.769531 88.917969 C -135.402344 89.304688 -144.621094 103.988281 -140.675781 111.703125 C -136.613281 119.640625 -45.121094 167.414062 -38.339844 155.660156 C -30.929688 142.816406 -121.1875 88.589844 -127.769531 88.917969 Z M -170.210938 224.636719 C -176.628906 228.785156 -177.269531 246.113281 -169.996094 250.820312 C -162.511719 255.664062 -59.390625 251.289062 -59.394531 237.722656 C -59.394531 222.894531 -164.675781 221.058594 -170.210938 224.636719 Z M -139.109375 363.390625 C -142.589844 370.195312 -134.480469 385.519531 -125.832031 385.960938 C -116.925781 386.414062 -29.808594 331.066406 -36.59375 319.316406 C -44.011719 306.472656 -136.101562 357.527344 -139.109375 363.390625 Z M -42.792969 468.003906 C -42.410156 475.636719 -27.722656 484.859375 -20.011719 480.910156 C -12.074219 476.851562 35.699219 385.359375 23.949219 378.578125 C 11.105469 371.164062 -43.125 461.425781 -42.792969 468.003906 Z M 92.921875 510.445312 C 97.070312 516.867188 114.402344 517.507812 119.105469 510.234375 C 123.949219 502.75 119.578125 399.628906 106.011719 399.628906 C 91.179688 399.632812 89.34375 504.914062 92.921875 510.445312 Z M 231.679688 479.34375 C 238.480469 482.828125 253.808594 474.71875 254.246094 466.066406 C 254.699219 457.160156 199.351562 370.042969 187.605469 376.828125 C 174.761719 384.246094 225.8125 476.339844 231.679688 479.34375 Z M 336.292969 383.03125 C 343.925781 382.644531 353.144531 367.960938 349.199219 360.246094 C 345.136719 352.308594 253.644531 304.535156 246.863281 316.289062 C 239.453125 329.132812 329.710938 383.363281 336.292969 383.03125 Z M 378.734375 247.3125 C 385.152344 243.164062 385.792969 225.835938 378.519531 221.128906 C 371.035156 216.285156 267.914062 220.660156 267.917969 234.226562 C 267.917969 249.054688 373.199219 250.890625 378.734375 247.3125 Z M 347.632812 108.558594 C 351.117188 101.757812 343.007812 86.429688 334.355469 85.988281 C 325.449219 85.539062 238.332031 140.882812 245.117188 152.632812 C 252.535156 165.476562 344.628906 114.425781 347.632812 108.558594 Z M 251.316406 3.945312 C 250.933594 -3.6875 236.246094 -12.910156 228.535156 -8.960938 C 220.597656 -4.902344 172.824219 86.589844 184.574219 93.371094 C 197.417969 100.785156 251.648438 10.527344 251.316406 3.945312 Z M 251.316406 3.945312 " fill-opacity="1" fill-rule="nonzero"/></g><g clip-path="url(#b308dead97)"><path fill="#ffbd59" d="M 404.167969 130.9375 C 404.167969 206.746094 351.617188 267 275.808594 267 C 200 267 136.324219 211.453125 136.324219 135.644531 C 136.324219 59.835938 193.84375 4.292969 269.652344 4.292969 C 351.523438 4.292969 404.167969 55.128906 404.167969 130.9375 Z M 281.585938 -138.828125 C 277.4375 -145.246094 260.105469 -145.886719 255.402344 -138.613281 C 250.558594 -131.128906 254.929688 -28.007812 268.496094 -28.007812 C 283.328125 -28.011719 285.164062 -133.292969 281.585938 -138.828125 Z M 142.828125 -107.722656 C 136.027344 -111.207031 120.699219 -103.097656 120.261719 -94.445312 C 119.808594 -85.542969 175.15625 1.574219 186.902344 -5.210938 C 199.746094 -12.628906 148.695312 -104.71875 142.828125 -107.722656 Z M 38.214844 -11.410156 C 30.582031 -11.027344 21.363281 3.660156 25.308594 11.371094 C 29.371094 19.308594 120.863281 67.082031 127.644531 55.332031 C 135.054688 42.488281 44.796875 -11.742188 38.214844 -11.410156 Z M -4.226562 124.304688 C -10.644531 128.457031 -11.285156 145.785156 -4.011719 150.488281 C 3.472656 155.332031 106.59375 150.960938 106.589844 137.390625 C 106.589844 122.5625 1.308594 120.730469 -4.226562 124.304688 Z M 26.875 263.0625 C 23.394531 269.863281 31.5 285.191406 40.152344 285.632812 C 49.058594 286.082031 136.175781 230.734375 129.390625 218.988281 C 121.972656 206.144531 29.878906 257.195312 26.875 263.0625 Z M 123.191406 367.675781 C 123.574219 375.308594 138.261719 384.527344 145.972656 380.582031 C 153.910156 376.519531 201.683594 285.03125 189.933594 278.246094 C 177.089844 270.835938 122.859375 361.09375 123.191406 367.675781 Z M 258.90625 410.117188 C 263.054688 416.535156 280.386719 417.175781 285.089844 409.902344 C 289.933594 402.417969 285.5625 299.296875 271.996094 299.300781 C 257.164062 299.300781 255.328125 404.582031 258.90625 410.117188 Z M 397.664062 379.015625 C 404.464844 382.5 419.792969 374.390625 420.230469 365.738281 C 420.683594 356.832031 365.335938 269.714844 353.585938 276.5 C 340.746094 283.917969 391.796875 376.011719 397.664062 379.015625 Z M 502.277344 282.699219 C 509.910156 282.316406 519.128906 267.628906 515.183594 259.917969 C 511.121094 251.980469 419.628906 204.207031 412.847656 215.957031 C 405.4375 228.804688 495.695312 283.03125 502.277344 282.699219 Z M 544.71875 146.984375 C 551.136719 142.835938 551.777344 125.503906 544.503906 120.800781 C 537.019531 115.957031 433.898438 120.328125 433.902344 133.894531 C 433.902344 148.726562 539.183594 150.5625 544.71875 146.984375 Z M 513.617188 8.226562 C 517.097656 1.425781 508.992188 -13.902344 500.339844 -14.339844 C 491.433594 -14.792969 404.316406 40.554688 411.101562 52.304688 C 418.519531 65.144531 510.613281 14.09375 513.617188 8.226562 Z M 417.300781 -96.386719 C 416.917969 -104.019531 402.230469 -113.238281 394.519531 -109.292969 C 386.582031 -105.230469 338.808594 -13.738281 350.558594 -6.957031 C 363.402344 0.453125 417.632812 -89.804688 417.300781 -96.386719 Z M 417.300781 -96.386719 " fill-opacity="1" fill-rule="nonzero"/></g><g clip-path="url(#ff3c98a8d0)"><path fill="#ffbd59" d="M 370.84375 97.890625 C 370.84375 173.695312 318.292969 233.949219 242.484375 233.949219 C 166.675781 233.949219 103 178.402344 103 102.597656 C 103 26.789062 160.519531 -28.757812 236.328125 -28.757812 C 318.199219 -28.757812 370.84375 22.082031 370.84375 97.890625 Z M 248.261719 -171.875 C 244.113281 -178.292969 226.78125 -178.9375 222.078125 -171.664062 C 217.234375 -164.175781 221.605469 -61.054688 235.171875 -61.058594 C 250.003906 -61.0625 251.839844 -166.34375 248.261719 -171.875 Z M 109.503906 -140.773438 C 102.703125 -144.257812 87.375 -136.148438 86.9375 -127.496094 C 86.484375 -118.589844 141.832031 -31.472656 153.582031 -38.257812 C 166.421875 -45.675781 115.371094 -137.769531 109.503906 -140.773438 Z M 4.890625 -44.460938 C -2.742188 -44.074219 -11.960938 -29.390625 -8.015625 -21.675781 C -3.953125 -13.738281 87.539062 34.035156 94.320312 22.28125 C 101.730469 9.4375 11.472656 -44.789062 4.890625 -44.460938 Z M -37.550781 91.257812 C -43.96875 95.40625 -44.609375 112.734375 -37.335938 117.441406 C -29.851562 122.285156 73.269531 117.910156 73.265625 104.34375 C 73.265625 89.515625 -32.015625 87.679688 -37.550781 91.257812 Z M -6.449219 230.011719 C -9.929688 236.816406 -1.824219 252.144531 6.828125 252.582031 C 15.734375 253.035156 102.851562 197.6875 96.066406 185.9375 C 88.648438 173.09375 -3.445312 224.148438 -6.449219 230.011719 Z M 89.867188 334.628906 C 90.25 342.257812 104.9375 351.480469 112.648438 347.535156 C 120.585938 343.472656 168.359375 251.980469 156.609375 245.199219 C 143.765625 237.785156 89.535156 328.046875 89.867188 334.628906 Z M 225.582031 377.070312 C 229.730469 383.488281 247.0625 384.128906 251.765625 376.855469 C 256.609375 369.371094 252.238281 266.25 238.671875 266.25 C 223.839844 266.253906 222.003906 371.535156 225.582031 377.070312 Z M 364.339844 345.964844 C 371.140625 349.449219 386.46875 341.339844 386.90625 332.6875 C 387.359375 323.785156 332.011719 236.664062 320.261719 243.449219 C 307.421875 250.867188 358.472656 342.960938 364.339844 345.964844 Z M 468.953125 249.652344 C 476.585938 249.265625 485.804688 234.582031 481.859375 226.871094 C 477.796875 218.929688 386.304688 171.15625 379.523438 182.910156 C 372.113281 195.753906 462.371094 249.984375 468.953125 249.652344 Z M 511.394531 113.933594 C 517.8125 109.785156 518.453125 92.457031 511.179688 87.75 C 503.695312 82.90625 400.574219 87.28125 400.578125 100.847656 C 400.578125 115.679688 505.859375 117.511719 511.394531 113.933594 Z M 480.292969 -24.820312 C 483.773438 -31.621094 475.667969 -46.949219 467.015625 -47.390625 C 458.109375 -47.839844 370.992188 7.503906 377.777344 19.253906 C 385.195312 32.097656 477.289062 -18.953125 480.292969 -24.820312 Z M 383.976562 -129.433594 C 383.59375 -137.066406 368.90625 -146.289062 361.195312 -142.339844 C 353.257812 -138.28125 305.484375 -46.789062 317.234375 -40.007812 C 330.078125 -32.59375 384.308594 -122.851562 383.976562 -129.433594 Z M 383.976562 -129.433594 " fill-opacity="1" fill-rule="nonzero"/></g><g clip-path="url(#9f8decd080)"><path fill="#ffbd59" d="M 319.632812 84.40625 C 319.632812 160.214844 267.082031 220.46875 191.273438 220.46875 C 115.46875 220.46875 51.792969 164.921875 51.792969 89.113281 C 51.792969 13.308594 109.308594 -42.238281 185.117188 -42.238281 C 266.992188 -42.238281 319.632812 8.601562 319.632812 84.40625 Z M 197.050781 -185.359375 C 192.902344 -191.777344 175.574219 -192.417969 170.867188 -185.144531 C 166.023438 -177.660156 170.398438 -74.539062 183.964844 -74.539062 C 198.792969 -74.542969 200.628906 -179.824219 197.050781 -185.359375 Z M 58.296875 -154.253906 C 51.492188 -157.738281 36.164062 -149.628906 35.726562 -140.976562 C 35.273438 -132.074219 90.621094 -44.953125 102.371094 -51.738281 C 115.214844 -59.15625 64.160156 -151.25 58.296875 -154.253906 Z M -46.316406 -57.941406 C -53.949219 -57.558594 -63.171875 -42.871094 -59.222656 -35.160156 C -55.164062 -27.222656 36.328125 20.550781 43.109375 8.800781 C 50.523438 -4.042969 -39.738281 -58.273438 -46.316406 -57.941406 Z M -88.761719 77.777344 C -95.179688 81.925781 -95.820312 99.253906 -88.546875 103.960938 C -81.058594 108.800781 22.058594 104.429688 22.058594 90.863281 C 22.054688 76.03125 -83.226562 74.199219 -88.761719 77.777344 Z M -57.65625 216.53125 C -61.140625 223.332031 -53.03125 238.660156 -44.378906 239.101562 C -35.476562 239.550781 51.644531 184.203125 44.859375 172.457031 C 37.441406 159.613281 -54.652344 210.664062 -57.65625 216.53125 Z M 38.65625 321.144531 C 39.042969 328.777344 53.726562 337.996094 61.441406 334.050781 C 69.378906 329.992188 117.152344 238.5 105.398438 231.71875 C 92.554688 224.304688 38.324219 314.5625 38.65625 321.144531 Z M 174.375 363.585938 C 178.523438 370.003906 195.851562 370.648438 200.558594 363.375 C 205.402344 355.886719 201.027344 252.765625 187.460938 252.769531 C 172.628906 252.769531 170.796875 358.050781 174.375 363.585938 Z M 313.128906 332.484375 C 319.929688 335.96875 335.257812 327.859375 335.699219 319.207031 C 336.148438 310.300781 280.804688 223.183594 269.054688 229.96875 C 256.210938 237.386719 307.265625 329.480469 313.128906 332.484375 Z M 417.742188 236.167969 C 425.375 235.785156 434.597656 221.097656 430.648438 213.386719 C 426.589844 205.449219 335.097656 157.675781 328.316406 169.425781 C 320.902344 182.273438 411.160156 236.5 417.742188 236.167969 Z M 460.183594 100.453125 C 466.601562 96.304688 467.246094 78.976562 459.972656 74.269531 C 452.484375 69.425781 349.363281 73.796875 349.367188 87.367188 C 349.371094 102.195312 454.652344 104.03125 460.183594 100.453125 Z M 429.082031 -38.300781 C 432.566406 -45.105469 424.457031 -60.433594 415.804688 -60.871094 C 406.898438 -61.324219 319.78125 -5.976562 326.566406 5.773438 C 333.984375 18.613281 426.078125 -32.4375 429.082031 -38.300781 Z M 332.769531 -142.917969 C 332.382812 -150.550781 317.699219 -159.769531 309.984375 -155.824219 C 302.046875 -151.761719 254.273438 -60.269531 266.027344 -53.488281 C 278.871094 -46.074219 333.097656 -136.335938 332.769531 -142.917969 Z M 332.769531 -142.917969 " fill-opacity="1" fill-rule="nonzero"/></g><g clip-path="url(#9fbd39a027)"><path fill="#ffbd59" d="M 271.878906 100.492188 C 271.878906 176.296875 219.328125 236.550781 143.523438 236.550781 C 67.714844 236.550781 4.039062 181.003906 4.039062 105.199219 C 4.039062 29.390625 61.558594 -26.15625 137.367188 -26.15625 C 219.238281 -26.15625 271.878906 24.683594 271.878906 100.492188 Z M 149.300781 -169.273438 C 145.152344 -175.691406 127.820312 -176.335938 123.117188 -169.0625 C 118.273438 -161.574219 122.644531 -58.453125 136.210938 -58.457031 C 151.042969 -58.460938 152.878906 -163.742188 149.300781 -169.273438 Z M 10.542969 -138.171875 C 3.742188 -141.65625 -11.585938 -133.546875 -12.027344 -124.894531 C -12.476562 -115.988281 42.871094 -28.871094 54.617188 -35.65625 C 67.460938 -43.074219 16.410156 -135.167969 10.542969 -138.171875 Z M -94.070312 -41.859375 C -101.703125 -41.472656 -110.921875 -26.789062 -106.976562 -19.074219 C -102.914062 -11.136719 -11.425781 36.636719 -4.640625 24.882812 C 2.769531 12.039062 -87.488281 -42.1875 -94.070312 -41.859375 Z M -136.511719 93.859375 C -142.929688 98.007812 -143.570312 115.335938 -136.296875 120.042969 C -128.8125 124.886719 -25.691406 120.511719 -25.695312 106.945312 C -25.695312 92.117188 -130.976562 90.28125 -136.511719 93.859375 Z M -105.410156 232.613281 C -108.894531 239.417969 -100.785156 254.746094 -92.132812 255.183594 C -83.226562 255.636719 3.890625 200.289062 -2.894531 188.539062 C -10.3125 175.695312 -102.40625 226.75 -105.410156 232.613281 Z M -9.09375 337.230469 C -8.710938 344.859375 5.976562 354.082031 13.6875 350.136719 C 21.625 346.074219 69.398438 254.582031 57.648438 247.800781 C 44.804688 240.386719 -9.425781 330.648438 -9.09375 337.230469 Z M 126.621094 379.671875 C 130.769531 386.089844 148.101562 386.730469 152.804688 379.457031 C 157.648438 371.972656 153.277344 268.851562 139.710938 268.851562 C 124.878906 268.855469 123.042969 374.136719 126.621094 379.671875 Z M 265.378906 348.566406 C 272.179688 352.050781 287.507812 343.941406 287.945312 335.289062 C 288.398438 326.386719 233.050781 239.265625 221.300781 246.050781 C 208.460938 253.46875 259.511719 345.5625 265.378906 348.566406 Z M 369.992188 252.253906 C 377.625 251.867188 386.84375 237.183594 382.898438 229.472656 C 378.835938 221.53125 287.34375 173.757812 280.5625 185.511719 C 273.152344 198.355469 363.410156 252.585938 369.992188 252.253906 Z M 412.433594 116.535156 C 418.851562 112.386719 419.492188 95.058594 412.21875 90.351562 C 404.734375 85.507812 301.613281 89.882812 301.613281 103.449219 C 301.617188 118.28125 406.898438 120.113281 412.433594 116.535156 Z M 381.332031 -22.21875 C 384.8125 -29.019531 376.703125 -44.347656 368.050781 -44.789062 C 359.148438 -45.238281 272.03125 10.105469 278.816406 21.855469 C 286.234375 34.699219 378.324219 -16.351562 381.332031 -22.21875 Z M 285.015625 -126.832031 C 284.632812 -134.464844 269.945312 -143.6875 262.234375 -139.738281 C 254.296875 -135.679688 206.523438 -44.1875 218.273438 -37.40625 C 231.117188 -29.992188 285.347656 -120.25 285.015625 -126.832031 Z M 285.015625 -126.832031 " fill-opacity="1" fill-rule="nonzero"/></g><g clip-path="url(#eff46f9f78)"><path fill="#ffbd59" d="M 236.71875 134.34375 C 236.71875 210.148438 184.167969 270.402344 108.359375 270.402344 C 32.550781 270.402344 -31.125 214.855469 -31.125 139.050781 C -31.125 63.242188 26.394531 7.695312 102.203125 7.695312 C 184.074219 7.695312 236.71875 58.535156 236.71875 134.34375 Z M 114.136719 -135.421875 C 109.988281 -141.84375 92.65625 -142.484375 87.953125 -135.210938 C 83.109375 -127.726562 87.480469 -24.605469 101.046875 -24.605469 C 115.878906 -24.609375 117.714844 -129.890625 114.136719 -135.421875 Z M -24.621094 -104.320312 C -31.421875 -107.804688 -46.75 -99.695312 -47.1875 -91.042969 C -47.640625 -82.136719 7.707031 4.980469 19.457031 -1.804688 C 32.296875 -9.222656 -18.753906 -101.316406 -24.621094 -104.320312 Z M -129.234375 -8.007812 C -136.867188 -7.621094 -146.085938 7.0625 -142.140625 14.777344 C -138.078125 22.714844 -46.585938 70.488281 -39.804688 58.734375 C -32.394531 45.890625 -122.652344 -8.335938 -129.234375 -8.007812 Z M -171.675781 127.710938 C -178.09375 131.859375 -178.734375 149.1875 -171.460938 153.894531 C -163.976562 158.738281 -60.855469 154.363281 -60.859375 140.796875 C -60.859375 125.96875 -166.140625 124.132812 -171.675781 127.710938 Z M -140.574219 266.464844 C -144.054688 273.269531 -135.949219 288.59375 -127.296875 289.035156 C -118.390625 289.488281 -31.273438 234.140625 -38.058594 222.390625 C -45.476562 209.546875 -137.570312 260.597656 -140.574219 266.464844 Z M -44.257812 371.078125 C -43.875 378.710938 -29.1875 387.933594 -21.476562 383.984375 C -13.539062 379.925781 34.234375 288.433594 22.484375 281.652344 C 9.640625 274.238281 -44.589844 364.496094 -44.257812 371.078125 Z M 91.457031 413.519531 C 95.605469 419.941406 112.9375 420.582031 117.640625 413.308594 C 122.484375 405.824219 118.113281 302.703125 104.546875 302.703125 C 89.714844 302.707031 87.878906 407.988281 91.457031 413.519531 Z M 230.214844 382.417969 C 237.015625 385.902344 252.34375 377.792969 252.78125 369.140625 C 253.234375 360.234375 197.886719 273.117188 186.136719 279.902344 C 173.296875 287.320312 224.347656 379.414062 230.214844 382.417969 Z M 334.828125 286.105469 C 342.460938 285.71875 351.679688 271.035156 347.734375 263.320312 C 343.671875 255.382812 252.179688 207.609375 245.398438 219.363281 C 237.988281 232.207031 328.246094 286.433594 334.828125 286.105469 Z M 377.269531 150.386719 C 383.6875 146.238281 384.328125 128.910156 377.054688 124.203125 C 369.570312 119.359375 266.449219 123.734375 266.453125 137.300781 C 266.453125 152.128906 371.734375 153.964844 377.269531 150.386719 Z M 346.167969 11.632812 C 349.648438 4.832031 341.542969 -10.496094 332.890625 -10.9375 C 323.984375 -11.390625 236.867188 43.957031 243.652344 55.707031 C 251.070312 68.550781 343.164062 17.5 346.167969 11.632812 Z M 249.851562 -92.980469 C 249.46875 -100.613281 234.78125 -109.835938 227.070312 -105.886719 C 219.132812 -101.828125 171.359375 -10.335938 183.109375 -3.554688 C 195.953125 3.859375 250.183594 -86.398438 249.851562 -92.980469 Z M 249.851562 -92.980469 " fill-opacity="1" fill-rule="nonzero"/></g><g clip-path="url(#6afb16c97f)"><g clip-path="url(#23667125d8)"><g clip-path="url(#ac5f5965fd)"><path fill="#ff914d" d="M 278.289062 421.707031 C 220.609375 479.386719 134.78125 485.246094 77.101562 427.566406 C 19.421875 369.886719 13.238281 279.175781 70.917969 221.496094 C 128.597656 163.816406 214.621094 165.316406 272.300781 222.996094 C 334.597656 285.289062 335.96875 364.027344 278.289062 421.707031 Z M 390.277344 123.179688 C 392.003906 115.140625 379.308594 101.46875 370.191406 103.421875 C 360.8125 105.429688 285.675781 187.21875 296 197.542969 C 307.289062 208.824219 388.789062 130.113281 390.277344 123.179688 Z M 261.039062 41.273438 C 258.511719 33.445312 240.679688 27.953125 233.761719 34.203125 C 226.644531 40.632812 202.46875 149.03125 216.570312 152.808594 C 231.988281 156.933594 263.214844 48.019531 261.039062 41.273438 Z M 108.15625 34.957031 C 102.058594 29.441406 83.867188 33.601562 81.003906 42.472656 C 78.050781 51.601562 111.316406 157.5625 125.417969 153.78125 C 140.832031 149.648438 113.417969 39.710938 108.15625 34.957031 Z M -27.398438 105.925781 C -35.4375 104.199219 -49.113281 116.898438 -47.15625 126.011719 C -45.148438 135.390625 36.640625 210.527344 46.960938 200.203125 C 58.246094 188.917969 -20.464844 107.414062 -27.398438 105.925781 Z M -109.308594 235.167969 C -117.132812 237.691406 -122.625 255.523438 -116.378906 262.441406 C -109.945312 269.5625 -1.546875 293.734375 2.226562 279.632812 C 6.355469 264.214844 -102.558594 232.988281 -109.308594 235.167969 Z M -115.625 388.046875 C -121.136719 394.148438 -116.980469 412.335938 -108.109375 415.203125 C -98.980469 418.152344 6.984375 384.886719 3.203125 370.785156 C -0.929688 355.375 -110.867188 382.789062 -115.625 388.046875 Z M -44.652344 523.601562 C -46.378906 531.644531 -33.683594 545.316406 -24.566406 543.363281 C -15.1875 541.351562 59.945312 459.5625 49.621094 449.242188 C 38.335938 437.960938 -43.164062 516.667969 -44.652344 523.601562 Z M 84.585938 605.511719 C 87.113281 613.339844 104.945312 618.832031 111.863281 612.582031 C 118.980469 606.148438 143.15625 497.753906 129.054688 493.976562 C 113.636719 489.847656 82.410156 598.765625 84.585938 605.511719 Z M 237.46875 611.828125 C 243.566406 617.34375 261.757812 613.183594 264.621094 604.3125 C 267.570312 595.183594 234.308594 489.21875 220.207031 493 C 204.792969 497.136719 232.207031 607.070312 237.46875 611.828125 Z M 373.023438 540.855469 C 381.0625 542.582031 394.738281 529.886719 392.78125 520.773438 C 390.773438 511.390625 308.984375 436.257812 298.664062 446.582031 C 287.378906 457.867188 366.089844 539.367188 373.023438 540.855469 Z M 454.933594 411.617188 C 462.757812 409.09375 468.25 391.257812 462.003906 384.34375 C 455.570312 377.222656 347.171875 353.050781 343.394531 367.152344 C 339.269531 382.566406 448.183594 413.792969 454.933594 411.617188 Z M 461.246094 258.738281 C 466.761719 252.636719 462.605469 234.445312 453.734375 231.582031 C 444.605469 228.632812 338.640625 261.894531 342.421875 275.996094 C 346.554688 291.410156 456.492188 263.996094 461.246094 258.738281 Z M 461.246094 258.738281 " fill-opacity="1" fill-rule="nonzero"/></g></g></g><g clip-path="url(#ce1216c37c)"><g clip-path="url(#5b78aa03cd)"><g clip-path="url(#5116d1405a)"><path fill="#ff914d" d="M 183.976562 436.226562 C 108.496094 467.148438 27.0625 439.398438 -3.859375 363.917969 C -34.78125 288.433594 -5.449219 202.375 70.035156 171.453125 C 145.515625 140.527344 224.289062 175.140625 255.210938 250.625 C 288.609375 332.148438 259.460938 405.300781 183.976562 436.226562 Z M 402.585938 204.125 C 407.285156 197.378906 400.855469 179.859375 391.691406 178.140625 C 382.261719 176.371094 281.367188 222.792969 286.902344 236.300781 C 292.957031 251.066406 398.535156 209.945312 402.585938 204.125 Z M 315.015625 78.652344 C 315.707031 70.457031 301.382812 58.503906 292.585938 61.597656 C 283.535156 64.777344 219.367188 155.425781 230.917969 164.355469 C 243.542969 174.117188 314.417969 85.71875 315.015625 78.652344 Z M 176.441406 13.773438 C 172.941406 6.332031 154.558594 3.140625 148.488281 10.21875 C 142.242188 17.5 131.996094 128.085938 146.460938 130.046875 C 162.273438 132.1875 179.453125 20.195312 176.441406 13.773438 Z M 23.992188 26.875 C 17.242188 22.175781 -0.273438 28.609375 -1.992188 37.769531 C -3.761719 47.199219 42.65625 148.09375 56.164062 142.558594 C 70.929688 136.507812 29.8125 30.925781 23.992188 26.875 Z M -101.480469 114.445312 C -109.675781 113.753906 -121.628906 128.078125 -118.539062 136.875 C -115.355469 145.925781 -24.710938 210.09375 -15.777344 198.542969 C -6.015625 185.917969 -94.414062 115.042969 -101.480469 114.445312 Z M -166.359375 253.023438 C -173.804688 256.519531 -176.992188 274.902344 -169.917969 280.972656 C -162.636719 287.21875 -52.050781 297.464844 -50.089844 283 C -47.949219 267.1875 -159.941406 250.007812 -166.359375 253.023438 Z M -153.257812 405.46875 C -157.957031 412.21875 -151.527344 429.734375 -142.367188 431.453125 C -132.9375 433.222656 -32.039062 386.804688 -37.578125 373.296875 C -43.628906 358.53125 -149.207031 399.648438 -153.257812 405.46875 Z M -65.6875 530.945312 C -66.382812 539.136719 -52.054688 551.09375 -43.261719 548 C -34.210938 544.816406 29.957031 454.171875 18.410156 445.238281 C 5.785156 435.476562 -65.089844 523.878906 -65.6875 530.945312 Z M 72.886719 595.820312 C 76.382812 603.265625 94.765625 606.453125 100.835938 599.378906 C 107.082031 592.097656 117.332031 481.511719 102.863281 479.550781 C 87.050781 477.410156 69.871094 589.402344 72.886719 595.820312 Z M 225.335938 582.71875 C 232.085938 587.417969 249.601562 580.988281 251.320312 571.828125 C 253.085938 562.398438 206.667969 461.503906 193.160156 467.039062 C 178.394531 473.089844 219.515625 578.667969 225.335938 582.71875 Z M 350.808594 495.148438 C 359.003906 495.84375 370.957031 481.515625 367.863281 472.722656 C 364.683594 463.671875 274.035156 399.503906 265.105469 411.050781 C 255.34375 423.675781 343.742188 494.550781 350.808594 495.148438 Z M 415.6875 356.574219 C 423.128906 353.078125 426.320312 334.695312 419.242188 328.625 C 411.960938 322.378906 301.375 312.128906 299.414062 326.597656 C 297.273438 342.410156 409.269531 359.589844 415.6875 356.574219 Z M 415.6875 356.574219 " fill-opacity="1" fill-rule="nonzero"/></g></g></g><g clip-path="url(#470ba4dce5)"><g clip-path="url(#3337d6d9a7)"><g clip-path="url(#e25556c06c)"><path fill="#ff914d" d="M 150.425781 91.523438 C 167.027344 152.472656 137.96875 212.421875 77.019531 229.023438 C 16.066406 245.621094 -47.289062 214.90625 -63.890625 153.957031 C -80.488281 93.003906 -46.40625 35.75 14.542969 19.152344 C 80.371094 1.222656 133.828125 30.570312 150.425781 91.523438 Z M -7.199219 -98.53125 C -11.941406 -102.785156 -26.015625 -99.507812 -28.207031 -92.628906 C -30.460938 -85.550781 -4.363281 -3.59375 6.542969 -6.566406 C 18.464844 -9.816406 -3.113281 -94.867188 -7.199219 -98.53125 Z M -111.953125 -43.140625 C -118.183594 -44.453125 -128.730469 -34.578125 -127.191406 -27.523438 C -125.605469 -20.265625 -62.027344 37.660156 -54.066406 29.632812 C -45.367188 20.855469 -106.578125 -42.011719 -111.953125 -43.140625 Z M -174.972656 57.203125 C -181.027344 59.183594 -185.222656 73.011719 -180.363281 78.347656 C -175.359375 83.839844 -91.335938 102.21875 -88.457031 91.285156 C -85.308594 79.332031 -169.753906 55.496094 -174.972656 57.203125 Z M -179.378906 175.617188 C -183.632812 180.355469 -180.351562 194.429688 -173.472656 196.621094 C -166.394531 198.875 -84.441406 172.78125 -87.414062 161.871094 C -90.664062 149.949219 -175.714844 171.527344 -179.378906 175.617188 Z M -123.988281 280.367188 C -125.300781 286.597656 -115.425781 297.148438 -108.371094 295.605469 C -101.113281 294.019531 -43.1875 230.441406 -51.214844 222.480469 C -59.992188 213.78125 -122.859375 274.992188 -123.988281 280.367188 Z M -23.644531 343.386719 C -21.664062 349.441406 -7.835938 353.636719 -2.5 348.777344 C 2.992188 343.773438 21.371094 259.75 10.4375 256.871094 C -1.511719 253.726562 -25.351562 338.167969 -23.644531 343.386719 Z M 94.769531 347.792969 C 99.511719 352.046875 113.582031 348.769531 115.773438 341.890625 C 118.03125 334.808594 91.933594 252.855469 81.027344 255.828125 C 69.101562 259.078125 90.679688 344.128906 94.769531 347.792969 Z M 199.519531 292.402344 C 205.753906 293.714844 216.300781 283.839844 214.757812 276.785156 C 213.171875 269.527344 149.597656 211.601562 141.636719 219.628906 C 132.933594 228.40625 194.148438 291.273438 199.519531 292.402344 Z M 262.542969 192.058594 C 268.59375 190.078125 272.792969 176.25 267.929688 170.914062 C 262.925781 165.421875 178.90625 147.042969 176.023438 157.976562 C 172.878906 169.929688 257.324219 193.765625 262.542969 192.058594 Z M 266.949219 73.644531 C 271.199219 68.90625 267.921875 54.832031 261.042969 52.640625 C 253.960938 50.386719 172.011719 76.480469 174.980469 87.390625 C 178.230469 99.3125 263.28125 77.734375 266.949219 73.644531 Z M 211.558594 -31.105469 C 212.867188 -37.335938 202.992188 -47.886719 195.941406 -46.34375 C 188.679688 -44.757812 130.753906 18.820312 138.785156 26.78125 C 147.558594 35.480469 210.425781 -25.730469 211.558594 -31.105469 Z M 111.210938 -94.128906 C 109.230469 -100.179688 95.402344 -104.375 90.066406 -99.515625 C 84.574219 -94.511719 66.199219 -10.488281 77.132812 -7.609375 C 89.082031 -4.464844 112.917969 -88.90625 111.210938 -94.128906 Z M 111.210938 -94.128906 " fill-opacity="1" fill-rule="nonzero"/></g></g></g></svg>